<svg id="Capa_1" data-name="Capa 1" xmlns="http://www.w3.org/2000/svg" viewBox="0 0 343.95 405.16"><defs><style>.cls-1,.cls-5{fill:#50e3c2;}.cls-2,.cls-6{fill:#9013fe;}.cls-3,.cls-7{fill:#bd10e0;}.cls-4,.cls-5,.cls-6,.cls-7{isolation:isolate;}.cls-5,.cls-6,.cls-7{font-size:83.22px;font-family:Bauhaus93, "Bauhaus 93";}</style></defs><title>logo</title><path class="cls-1" d="M91.9,215.9a7,7,0,0,1-7-7v-70a7,7,0,0,1,14,0v70A7,7,0,0,1,91.9,215.9Z" transform="translate(-57 -20)"/><path class="cls-2" d="M131.2,271.9a7,7,0,0,1-7-7V83a7,7,0,0,1,14,0V264.9A7,7,0,0,1,131.2,271.9Z" transform="translate(-57 -20)"/><path class="cls-2" d="M173.2,327.9a7,7,0,0,1-7-7V27a7,7,0,0,1,14,0V320.9A7,7,0,0,1,173.2,327.9Z" transform="translate(-57 -20)"/><path class="cls-3" d="M215.2,313.9a7,7,0,0,1-7-7V41a7,7,0,0,1,14,0V306.9A7,7,0,0,1,215.2,313.9Z" transform="translate(-57 -20)"/><path class="cls-3" d="M257.2,257.9a7,7,0,0,1-7-7V97a7,7,0,0,1,14,0V250.9A7,7,0,0,1,257.2,257.9Z" transform="translate(-57 -20)"/><path class="cls-2" d="M299.2,313.9a7,7,0,0,1-7-7V41a7,7,0,0,1,14,0V306.9A7,7,0,0,1,299.2,313.9Z" transform="translate(-57 -20)"/><path class="cls-2" d="M341.2,257.9a7,7,0,0,1-7-7V97a7,7,0,0,1,14,0V250.9A7,7,0,0,1,341.2,257.9Z" transform="translate(-57 -20)"/><path class="cls-1" d="M377.5,215.9a7,7,0,0,1-7-7v-70a7,7,0,1,1,14,0v70A7,7,0,0,1,377.5,215.9Z" transform="translate(-57 -20)"/><g class="cls-4"><text class="cls-5" transform="translate(0 384.35)">S</text><text class="cls-6" transform="translate(34.4 384.35)">ou</text><text class="cls-7" transform="translate(125.9 384.35)">nd</text><text class="cls-6" transform="translate(219 384.35)">La</text><text class="cls-5" transform="translate(295.8 384.35)">b</text></g></svg>